<?xml version="1.0" standalone="no"?><!DOCTYPE svg PUBLIC "-//W3C//DTD SVG 1.1//EN" "http://www.w3.org/Graphics/SVG/1.1/DTD/svg11.dtd"><svg class="icon" width="200px" height="200.00px" viewBox="0 0 1024 1024" version="1.1" xmlns="http://www.w3.org/2000/svg"><path d="M294 445h44V323.475c0-95.334 77.166-172.893 172.5-172.893S683 228.142 683 323.475V445h44V314.243c0-119.398-97.102-216.536-216.5-216.536S294 194.845 294 314.243V445zM102.298 480.876C99.62 482.538 98 484.814 98 486.608v2.932c0-3.537 1.69-6.67 4.298-8.664zM912.874 479h-2.034c6.026 0 11.161 4.514 11.161 10.54v413.768c0 6.026-5.135 10.692-11.161 10.692h2.034c5.918 0 10.126-3.152 10.126-7.454V486.608c0-4.474-4.208-7.608-10.126-7.608zM139.536 479l-0.56 435H886.22l-0.56-435H139.536z m198.797 223.013c0-54.221 43.955-97.973 98.177-97.973 39.813 0 74.09 23.961 89.497 57.961H683v82H525.348c-15.707 33-49.579 56.268-88.838 56.268-54.222-0.001-98.177-44.035-98.177-98.256zM98 903.308v3.239c0 1.817 1.805 4.144 4.743 5.758A10.898 10.898 0 0 1 98 903.308z" fill="#53AFFD" /><path d="M943.771 456.789c-8.227-7.583-19.2-11.789-30.898-11.789H761V314.243c0-66.806-26.212-129.614-73.451-176.852S577.404 64.136 510.598 64.136 380.739 90.152 333.5 137.39C286.261 184.629 260 247.437 260 314.243V445H109.936c-11.535 0-22.634 4.032-31.25 11.302C69.352 464.175 64 475.239 64 486.608v419.939C64 929.288 84.607 948 109.936 948h802.938C937.618 948 957 929.673 957 906.546V486.608c0-11.348-4.698-21.956-13.229-29.819zM923 906.546c0 4.302-4.208 7.454-10.126 7.454H108.482c-2.29 0-4.199-0.599-5.954-1.805-2.938-1.614-4.528-3.832-4.528-5.649V486.608c0-1.794 1.406-3.884 4.083-5.546 1.836-1.404 3.909-2.061 6.399-2.061H912.874c5.918 0 10.126 3.134 10.126 7.608v419.937zM510.5 97.707c119.398 0 216.5 97.137 216.5 216.536V445h-44V323.475c0-95.334-77.167-172.893-172.5-172.893S338 228.142 338 323.475V445h-44V314.243c0-119.398 97.102-216.536 216.5-216.536zM650 445H371V323.475c0-76.822 62.678-139.321 139.5-139.321 76.823 0 139.5 62.499 139.5 139.321V445z"  /><path d="M525.348 744H683v-82H526.007c-15.406-34-49.684-57.961-89.497-57.961-54.222 0-98.177 43.854-98.177 98.075 0 54.222 43.955 98.204 98.177 98.204 39.259 0.001 73.13-23.318 88.838-56.318z"  /><path d="M116.036 479H108.482c-2.49 0-4.563 0.658-6.399 2.061-2.608 1.994-4.083 4.942-4.083 8.479v413.768c0 3.736 1.666 6.921 4.528 8.888 1.755 1.205 3.664 1.805 5.954 1.805h30.494l0.56-435h-23.5z" fill="#FFFFFF" /><path d="M922 903.308V489.54c0-6.026-5.135-10.54-11.161-10.54H885.66l0.56 435h24.619c6.026 0 11.161-4.667 11.161-10.692z" fill="#1083EA" /></svg>