<?xml version="1.0" standalone="no"?><!DOCTYPE svg PUBLIC "-//W3C//DTD SVG 1.1//EN" "http://www.w3.org/Graphics/SVG/1.1/DTD/svg11.dtd"><svg class="icon" width="200px" height="200.00px" viewBox="0 0 1024 1024" version="1.1" xmlns="http://www.w3.org/2000/svg"><path d="M885.1 432.3v463c0 34.8-28.2 62.9-62.9 62.9h-619c-34.8 0-62.9-28.2-62.9-62.9v-463c0-34.8 28.2-62.9 62.9-62.9h619c34.7 0 62.9 28.2 62.9 62.9z" fill="#0D4D90" /><path d="M763.1 395.7h-501V286c0-123.3 100.9-224.2 224.2-224.2h52.5C662.1 61.8 763 162.7 763 286v109.7z" fill="#0D4D90" /><path d="M672.8 370.8H352.5v-80.5c0-75.4 61.7-137 137-137h46.2c75.4 0 137 61.7 137 137v80.5z" fill="#EA590A" /><path d="M618.1 597.9c0-58.2-47.2-105.5-105.5-105.5-58.2 0-105.5 47.2-105.5 105.5 0 33.9 16 64 40.8 83.3L429.2 844h167l-18.8-162.8c24.8-19.3 40.7-49.5 40.7-83.3z" fill="#FFD301" /></svg>